<svg width="27" height="27" viewBox="0 0 27 27" fill="none" xmlns="http://www.w3.org/2000/svg">
<path d="M13.5002 18.3714C10.8114 18.3714 8.62891 16.1889 8.62891 13.5002C8.62891 10.8114 10.8114 8.62891 13.5002 8.62891C16.1889 8.62891 18.3714 10.8114 18.3714 13.5002C18.3714 16.1889 16.1889 18.3714 13.5002 18.3714ZM13.5002 10.3164C11.7452 10.3164 10.3164 11.7452 10.3164 13.5002C10.3164 15.2552 11.7452 16.6839 13.5002 16.6839C15.2552 16.6839 16.6839 15.2552 16.6839 13.5002C16.6839 11.7452 15.2552 10.3164 13.5002 10.3164Z" fill="#292D32"/>
<path d="M13.4998 23.6466C9.26984 23.6466 5.27609 21.1716 2.53109 16.8741C1.33859 15.0178 1.33859 11.9916 2.53109 10.1241C5.28734 5.82656 9.28109 3.35156 13.4998 3.35156C17.7186 3.35156 21.7123 5.82656 24.4573 10.1241C25.6498 11.9803 25.6498 15.0066 24.4573 16.8741C21.7123 21.1716 17.7186 23.6466 13.4998 23.6466ZM13.4998 5.03906C9.86609 5.03906 6.38984 7.22156 3.95984 11.0353C3.11609 12.3516 3.11609 14.6466 3.95984 15.9628C6.38984 19.7766 9.86609 21.9591 13.4998 21.9591C17.1336 21.9591 20.6098 19.7766 23.0398 15.9628C23.8836 14.6466 23.8836 12.3516 23.0398 11.0353C20.6098 7.22156 17.1336 5.03906 13.4998 5.03906Z" fill="#292D32"/>
</svg>
