<svg width="27" height="27" viewBox="0 0 27 27" fill="none" xmlns="http://www.w3.org/2000/svg">
<path d="M13.5224 23.0964C10.9011 23.0964 8.27985 22.6802 5.7936 21.8477C4.8486 21.5214 4.1286 20.8577 3.8136 19.9914C3.48735 19.1252 3.59985 18.1689 4.11735 17.3139L5.4111 15.1652C5.6811 14.7152 5.9286 13.8152 5.9286 13.2864V10.0352C5.9286 5.85016 9.33735 2.44141 13.5224 2.44141C17.7074 2.44141 21.1161 5.85016 21.1161 10.0352V13.2864C21.1161 13.8039 21.3636 14.7152 21.6336 15.1764L22.9161 17.3139C23.3999 18.1239 23.4899 19.1027 23.1636 19.9914C22.8374 20.8802 22.1286 21.5552 21.2399 21.8477C18.7649 22.6802 16.1436 23.0964 13.5224 23.0964ZM13.5224 4.12891C10.2711 4.12891 7.6161 6.77266 7.6161 10.0352V13.2864C7.6161 14.1077 7.2786 15.3227 6.86235 16.0314L5.5686 18.1802C5.3211 18.5964 5.2536 19.0352 5.39985 19.4064C5.53485 19.7889 5.87235 20.0814 6.3336 20.2389C11.0361 21.8139 16.0199 21.8139 20.7224 20.2389C21.1274 20.1039 21.4424 19.8002 21.5886 19.3952C21.7349 18.9902 21.7011 18.5514 21.4761 18.1802L20.1824 16.0314C19.7549 15.3002 19.4286 14.0964 19.4286 13.2752V10.0352C19.4286 6.77266 16.7849 4.12891 13.5224 4.12891Z" fill="#292D32"/>
<path d="M15.6152 4.43313C15.5364 4.43313 15.4577 4.42187 15.3789 4.39937C15.0527 4.30937 14.7377 4.24187 14.4339 4.19687C13.4777 4.07312 12.5552 4.14062 11.6889 4.39937C11.3739 4.50062 11.0364 4.39937 10.8227 4.16312C10.6089 3.92687 10.5414 3.58938 10.6652 3.28562C11.1264 2.10438 12.2514 1.32812 13.5339 1.32812C14.8164 1.32812 15.9414 2.09313 16.4027 3.28562C16.5152 3.58938 16.4589 3.92687 16.2452 4.16312C16.0764 4.34312 15.8402 4.43313 15.6152 4.43313Z" fill="#292D32"/>
<path d="M13.5225 25.6621C12.4087 25.6621 11.3287 25.2121 10.5412 24.4246C9.75371 23.6371 9.30371 22.5571 9.30371 21.4434H10.9912C10.9912 22.1071 11.2612 22.7596 11.7337 23.2321C12.2062 23.7046 12.8587 23.9746 13.5225 23.9746C14.9175 23.9746 16.0537 22.8384 16.0537 21.4434H17.7412C17.7412 23.7721 15.8512 25.6621 13.5225 25.6621Z" fill="#292D32"/>
</svg>
