<svg width="24" height="24" viewBox="0 0 24 24" fill="none" xmlns="http://www.w3.org/2000/svg">
<path d="M4.382 8.813V17.313C4.382 18.158 4.726 18.969 5.339 19.566C5.95687 20.1668 6.78522 20.502 7.647 20.5H16.353C17.219 20.5 18.049 20.164 18.661 19.566C18.9628 19.2733 19.2029 18.9232 19.3673 18.5363C19.5317 18.1493 19.6169 17.7334 19.618 17.313V8.813M4.382 8.813C3.48 8.813 2.75 8.099 2.75 7.219V5.094C2.75 4.214 3.481 3.5 4.382 3.5H19.618C20.52 3.5 21.25 4.214 21.25 5.094V7.219C21.25 8.099 20.519 8.813 19.618 8.813M4.382 8.813H19.618" stroke="#747474" stroke-width="1.5" stroke-linecap="round" stroke-linejoin="round"/>
<path d="M12 17V12" stroke="#747474" stroke-width="1.5" stroke-miterlimit="10" stroke-linecap="round"/>
<path d="M9.70703 14.8945L11.674 16.8615C11.7168 16.9045 11.7676 16.9385 11.8235 16.9618C11.8795 16.985 11.9394 16.997 12 16.997C12.0606 16.997 12.1206 16.985 12.1765 16.9618C12.2325 16.9385 12.2833 16.9045 12.326 16.8615L14.293 14.8945" stroke="#747474" stroke-width="1.5" stroke-linecap="round" stroke-linejoin="round"/>
</svg>
