<svg width="24" height="24" viewBox="0 0 24 24" fill="none" xmlns="http://www.w3.org/2000/svg">
<path d="M12.0004 22.7595C10.9104 22.7595 9.83039 22.4395 8.98039 21.8095L4.68039 18.5995C3.54039 17.7495 2.65039 15.9695 2.65039 14.5595V7.11945C2.65039 5.57945 3.78039 3.93945 5.23039 3.39945L10.2204 1.52945C11.2104 1.15945 12.7704 1.15945 13.7604 1.52945L18.7504 3.39945C20.2004 3.93945 21.3304 5.57945 21.3304 7.11945V14.5495C21.3304 15.9695 20.4404 17.7395 19.3004 18.5895L15.0004 21.7995C14.1704 22.4395 13.0904 22.7595 12.0004 22.7595ZM10.7504 2.93945L5.76039 4.80945C4.91039 5.12945 4.16039 6.20945 4.16039 7.12945V14.5595C4.16039 15.5095 4.83039 16.8395 5.58039 17.3995L9.88039 20.6095C11.0304 21.4695 12.9704 21.4695 14.1304 20.6095L18.4304 17.3995C19.1904 16.8295 19.8504 15.5095 19.8504 14.5595V7.11945C19.8504 6.20945 19.1004 5.12945 18.2504 4.79945L13.2604 2.92945C12.5804 2.68945 11.4204 2.68945 10.7504 2.93945Z" fill="#747474"/>
<path d="M15.5393 11.835C15.4049 11.9694 15.2211 12.0542 15.0089 12.0542L8.99853 12.0542C8.58841 12.0542 8.249 11.7148 8.249 11.3047C8.249 10.8946 8.58841 10.5552 8.99853 10.5552L15.0089 10.5552C15.4191 10.5552 15.7585 10.8946 15.7585 11.3047C15.7514 11.5097 15.6736 11.7007 15.5393 11.835Z" fill="#747474"/>
<path d="M12.5263 14.9027C12.3919 15.0371 12.2081 15.1219 11.9959 15.1219C11.5858 15.1219 11.2464 14.7825 11.2464 14.3724V8.36198C11.2464 7.95186 11.5858 7.61245 11.9959 7.61245C12.406 7.61245 12.7455 7.95186 12.7455 8.36198V14.3724C12.7525 14.5775 12.6606 14.7684 12.5263 14.9027Z" fill="#747474"/>
</svg>
